<svg width="48" height="48" viewBox="0 0 48 48" fill="none" xmlns="http://www.w3.org/2000/svg" role="img" aria-label="Slate">
  <rect width="48" height="48" rx="11" fill="#121119"/>
  <rect x="10" y="10" width="28" height="28" rx="9" fill="#FF5A4D"/>
  <g transform="translate(10 10) scale(0.875) translate(-8 -8)">
    <path fill="#121119" d="M18 16.3 L30 16.3 Q31.6 16.4 32.4 18.0 C33.5 20.4 34.6 23.8 35.4 26.8 C36.1 29.3 35.9 32.1 33.9 33.3 C32.0 34.4 30.1 33.5 29.0 31.8 C28.1 30.3 27.3 29.3 25.8 29.0 Q24.9 28.8 24 28.8 Q23.1 28.8 22.2 29.0 C20.7 29.3 19.9 30.3 19.0 31.8 C17.9 33.5 16.0 34.4 14.1 33.3 C12.1 32.1 11.9 29.3 12.6 26.8 C13.4 23.8 14.5 20.4 15.6 18.0 Q16.4 16.4 18 16.3 Z"/>
    <g fill="#FF5A4D">
      <rect x="17.7" y="18.15" width="1.6" height="4.3" rx="0.4"/>
      <rect x="16.35" y="19.5" width="4.3" height="1.6" rx="0.4"/>
      <circle cx="20.5" cy="25" r="1.75"/>
      <circle cx="29.5" cy="18.55" r="0.9"/>
      <circle cx="29.5" cy="21.65" r="0.9"/>
      <circle cx="27.95" cy="20.1" r="0.9"/>
      <circle cx="31.05" cy="20.1" r="0.9"/>
      <circle cx="27.5" cy="25" r="1.75"/>
    </g>
  </g>
</svg>
